REM DIRINDEX 1\2,1\3
REM DIRNAME folder01,folder02,folder03
TITLE ""
FILE "CD2Track28.mp3" MP3
  TRACK 01 AUDIO
    TITLE "0:"
    INDEX 01 00:00:00
  TRACK 02 AUDIO
    TITLE "2:cjc102_3640"
    INDEX 01 00:00:27
  TRACK 03 AUDIO
    TITLE "0:"
    INDEX 01 00:01:07
  TRACK 04 AUDIO
    TITLE "3:cjc102_3641"
    INDEX 01 00:01:15
  TRACK 05 AUDIO
    TITLE "0:"
    INDEX 01 00:02:53
  TRACK 06 AUDIO
    TITLE "3:cjc102_3642"
    INDEX 01 00:03:63
  TRACK 07 AUDIO
    TITLE "0:"
    INDEX 01 00:06:69
  TRACK 08 AUDIO
    TITLE "2:cjc102_3643"
    INDEX 01 00:06:71
  TRACK 09 AUDIO
    TITLE "0:"
    INDEX 01 00:07:72
  TRACK 10 AUDIO
    TITLE "3:cjc102_3644"
    INDEX 01 00:10:51
  TRACK 11 AUDIO
    TITLE "0:"
    INDEX 01 00:11:48
  TRACK 12 AUDIO
    TITLE "2:cjc102_3645"
    INDEX 01 00:12:24
  TRACK 13 AUDIO
    TITLE "0:"
    INDEX 01 00:13:26
  TRACK 14 AUDIO
    TITLE "3:cjc102_3646"
    INDEX 01 00:14:64
  TRACK 15 AUDIO
    TITLE "0:"
    INDEX 01 00:15:48
  TRACK 16 AUDIO
    TITLE "2:cjc102_3647"
    INDEX 01 00:16:10
  TRACK 17 AUDIO
    TITLE "0:"
    INDEX 01 00:17:21
  TRACK 18 AUDIO
    TITLE "3:cjc102_3648"
    INDEX 01 00:18:42
  TRACK 19 AUDIO
    TITLE "0:"
    INDEX 01 00:19:40
  TRACK 20 AUDIO
    TITLE "2:cjc102_3649"
    INDEX 01 00:19:73
  TRACK 21 AUDIO
    TITLE "0:"
    INDEX 01 00:20:73
  TRACK 22 AUDIO
    TITLE "3:cjc102_3650"
    INDEX 01 00:22:23
  TRACK 23 AUDIO
    TITLE "0:"
    INDEX 01 00:23:18
  TRACK 24 AUDIO
    TITLE "2:cjc102_3651"
    INDEX 01 00:23:34
  TRACK 25 AUDIO
    TITLE "0:"
    INDEX 01 00:24:43
  TRACK 26 AUDIO
    TITLE "3:cjc102_3652"
    INDEX 01 00:26:24
  TRACK 27 AUDIO
    TITLE "0:"
    INDEX 01 00:27:06
  TRACK 28 AUDIO
    TITLE "2:cjc102_3653"
    INDEX 01 00:27:41
  TRACK 29 AUDIO
    TITLE "0:"
    INDEX 01 00:28:62
  TRACK 30 AUDIO
    TITLE "3:cjc102_3654"
    INDEX 01 00:30:06
  TRACK 31 AUDIO
    TITLE "0:"
    INDEX 01 00:31:04
  TRACK 32 AUDIO
    TITLE "2:cjc102_3655"
    INDEX 01 00:31:24
  TRACK 33 AUDIO
    TITLE "0:"
    INDEX 01 00:32:29
  TRACK 34 AUDIO
    TITLE "3:cjc102_3656"
    INDEX 01 00:34:06
  TRACK 35 AUDIO
    TITLE "0:"
    INDEX 01 00:35:00
  TRACK 36 AUDIO
    TITLE "2:cjc102_3657"
    INDEX 01 00:35:23
  TRACK 37 AUDIO
    TITLE "0:"
    INDEX 01 00:36:33
  TRACK 38 AUDIO
    TITLE "3:cjc102_3658"
    INDEX 01 00:38:08
  TRACK 39 AUDIO
    TITLE "0:"
    INDEX 01 00:39:05
  TRACK 40 AUDIO
    TITLE "2:cjc102_3659"
    INDEX 01 00:39:47
  TRACK 41 AUDIO
    TITLE "0:"
    INDEX 01 00:41:00
  TRACK 42 AUDIO
    TITLE "3:cjc102_3660"
    INDEX 01 00:42:25
  TRACK 43 AUDIO
    TITLE "0:"
    INDEX 01 00:43:17
  TRACK 44 AUDIO
    TITLE "2:cjc102_3661"
    INDEX 01 00:43:42
  TRACK 45 AUDIO
    TITLE "0:"
    INDEX 01 00:45:04
  TRACK 46 AUDIO
    TITLE "3:cjc102_3662"
    INDEX 01 00:46:11
  TRACK 47 AUDIO
    TITLE "0:"
    INDEX 01 00:47:05
  TRACK 48 AUDIO
    TITLE "2:cjc102_3663"
    INDEX 01 00:47:48
  TRACK 49 AUDIO
    TITLE "0:"
    INDEX 01 00:49:02
  TRACK 50 AUDIO
    TITLE "3:cjc102_3664"
    INDEX 01 00:49:74
  TRACK 51 AUDIO
    TITLE "0:"
    INDEX 01 00:51:16
  TRACK 52 AUDIO
    TITLE "2:cjc102_3665"
    INDEX 01 00:51:71
  TRACK 53 AUDIO
    TITLE "0:"
    INDEX 01 00:53:00
  TRACK 54 AUDIO
    TITLE "3:cjc102_3666"
    INDEX 01 00:54:30
  TRACK 55 AUDIO
    TITLE "0:"
    INDEX 01 00:55:42
  TRACK 56 AUDIO
    TITLE "2:cjc102_3667"
    INDEX 01 00:56:04
  TRACK 57 AUDIO
    TITLE "0:"
    INDEX 01 00:57:19
  TRACK 58 AUDIO
    TITLE "3:cjc102_3668"
    INDEX 01 00:58:67
  TRACK 59 AUDIO
    TITLE "0:"
    INDEX 01 01:00:12
  TRACK 60 AUDIO
    TITLE "2:cjc102_3669"
    INDEX 01 01:00:60
  TRACK 61 AUDIO
    TITLE "0:"
    INDEX 01 01:01:58
  TRACK 62 AUDIO
    TITLE "3:cjc102_3670"
    INDEX 01 01:03:16
  TRACK 63 AUDIO
    TITLE "0:"
    INDEX 01 01:04:33
  TRACK 64 AUDIO
    TITLE "2:cjc102_3671"
    INDEX 01 01:04:66
  TRACK 65 AUDIO
    TITLE "0:"
    INDEX 01 01:05:68
  TRACK 66 AUDIO
    TITLE "3:cjc102_3672"
    INDEX 01 01:07:17
  TRACK 67 AUDIO
    TITLE "0:"
    INDEX 01 01:08:23
  TRACK 68 AUDIO
    TITLE "2:cjc102_3673"
    INDEX 01 01:08:64
  TRACK 69 AUDIO
    TITLE "0:"
    INDEX 01 01:09:61
  TRACK 70 AUDIO
    TITLE "3:cjc102_3674"
    INDEX 01 01:10:71
  TRACK 71 AUDIO
    TITLE "0:"
    INDEX 01 01:12:05
  TRACK 72 AUDIO
    TITLE "2:cjc102_3675"
    INDEX 01 01:12:71
  TRACK 73 AUDIO
    TITLE "0:"
    INDEX 01 01:13:63
  TRACK 74 AUDIO
    TITLE "3:cjc102_3676"
    INDEX 01 01:15:44
  TRACK 75 AUDIO
    TITLE "0:"
    INDEX 01 01:16:65
  TRACK 76 AUDIO
    TITLE "2:cjc102_3677"
    INDEX 01 01:17:30
  TRACK 77 AUDIO
    TITLE "0:"
    INDEX 01 01:18:37
  TRACK 78 AUDIO
    TITLE "2:cjc102_3678"
    INDEX 01 01:19:19
  TRACK 79 AUDIO
    TITLE "0:"
    INDEX 01 01:20:28
  TRACK 80 AUDIO
    TITLE "3:cjc102_3679"
    INDEX 01 01:21:49
  TRACK 81 AUDIO
    TITLE "0:"
    INDEX 01 01:22:72
  TRACK 82 AUDIO
    TITLE "2:cjc102_3680"
    INDEX 01 01:24:16
  TRACK 83 AUDIO
    TITLE "0:"
    INDEX 01 01:25:27
  TRACK 84 AUDIO
    TITLE "2:cjc102_3681"
    INDEX 01 01:26:23
  TRACK 85 AUDIO
    TITLE "0:"
    INDEX 01 01:27:32
  TRACK 86 AUDIO
    TITLE "3:cjc102_3682"
    INDEX 01 01:29:01
  TRACK 87 AUDIO
    TITLE "0:"
    INDEX 01 01:30:26
  TRACK 88 AUDIO
    TITLE "2:cjc102_3683"
    INDEX 01 01:30:56
  TRACK 89 AUDIO
    TITLE "0:"
    INDEX 01 01:31:65
  TRACK 90 AUDIO
    TITLE "2:cjc102_3684"
    INDEX 01 01:32:60
  TRACK 91 AUDIO
    TITLE "0:"
    INDEX 01 01:33:74
  TRACK 92 AUDIO
    TITLE "3:cjc102_3685"
    INDEX 01 01:35:41
  TRACK 93 AUDIO
    TITLE "0:"
    INDEX 01 01:36:54
  TRACK 94 AUDIO
    TITLE "2:cjc102_3686"
    INDEX 01 01:37:21
  TRACK 95 AUDIO
    TITLE "0:"
    INDEX 01 01:39:33
  TRACK 96 AUDIO
    TITLE "3:cjc102_3687"
    INDEX 01 01:40:58
  TRACK 97 AUDIO
    TITLE "0:"
    INDEX 01 01:42:10
  TRACK 98 AUDIO
    TITLE "2:cjc102_3688"
    INDEX 01 01:42:37
  TRACK 99 AUDIO
    TITLE "0:"
    INDEX 01 01:45:45
  TRACK 100 AUDIO
    TITLE "3:cjc102_3689"
    INDEX 01 01:47:11
  TRACK 101 AUDIO
    TITLE "0:"
    INDEX 01 01:48:32
  TRACK 102 AUDIO
    TITLE "2:cjc102_3690"
    INDEX 01 01:49:02
  TRACK 103 AUDIO
    TITLE "0:"
    INDEX 01 01:52:69
  TRACK 104 AUDIO
    TITLE "3:cjc102_3691"
    INDEX 01 01:54:37
  TRACK 105 AUDIO
    TITLE "0:"
    INDEX 01 01:55:65
  TRACK 106 AUDIO
    TITLE "2:cjc102_3692"
    INDEX 01 01:56:22
  TRACK 107 AUDIO
    TITLE "0:"
    INDEX 01 01:57:27
  TRACK 108 AUDIO
    TITLE "3:cjc102_3693"
    INDEX 01 01:58:50
  TRACK 109 AUDIO
    TITLE "0:"
    INDEX 01 02:00:04
  TRACK 110 AUDIO
    TITLE "2:cjc102_3694"
    INDEX 01 02:00:27
  TRACK 111 AUDIO
    TITLE "0:"
    INDEX 01 02:01:31
  TRACK 112 AUDIO
    TITLE "3:cjc102_3695"
    INDEX 01 02:03:28
  TRACK 113 AUDIO
    TITLE "0:"
    INDEX 01 02:04:47
  TRACK 114 AUDIO
    TITLE "2:cjc102_3696"
    INDEX 01 02:05:25
  TRACK 115 AUDIO
    TITLE "0:"
    INDEX 01 02:06:28
  TRACK 116 AUDIO
    TITLE "3:cjc102_3697"
    INDEX 01 02:07:49
  TRACK 117 AUDIO
    TITLE "0:"
    INDEX 01 02:09:07
  TRACK 118 AUDIO
    TITLE "2:cjc102_3698"
    INDEX 01 02:09:66
  TRACK 119 AUDIO
    TITLE "0:"
    INDEX 01 02:10:67
